<svg xmlns="http://www.w3.org/2000/svg" width="151.1" height="151.1"><style>.st0{fill:#88cfda}.st1{fill:#3ea4b8}</style><path class="st0" d="M47.1 28.3h18v90.1h-18zM119.7 57.2l-48.2 13L84.4 22z"/><path class="st1" d="M84.1 113.7c-7.3-7.3-12.6-39.2-12.6-39.2s31.9 5.3 39.2 12.6c7.3 7.3 7.3 19.2 0 26.6-7.3 7.3-19.2 7.3-26.6 0z"/><g><path d="M67 12.5c-31.2 0-56.4 25.3-56.4 56.4 0 31.2 25.3 56.4 56.4 56.4 31.2 0 56.4-25.3 56.4-56.4.1-31.1-25.2-56.4-56.4-56.4z" fill="none"/><path class="st1" d="M129.6 21.5C101-7.2 54.5-7.2 25.8 21.5-14.5 61.8 4.4 146.7 4.4 146.7s84.8 18.9 125.2-21.4c28.7-28.7 28.7-75.2 0-103.8zm-91.8 91.8c-22-22-22-57.8 0-79.8s57.8-22 79.8 0 22 57.8 0 79.8-57.7 22-79.8 0z"/></g></svg>