<svg xmlns="http://www.w3.org/2000/svg" viewBox="0 0 588.9 149.5"><style>.st0{fill:#88cfda}.st1{fill:#3ea4b8}</style><path class="st0" d="M46.6 28h17.8v89.2H46.6zM118.4 56.6L70.7 69.4l12.8-47.7z"/><path class="st1" d="M83.2 112.5c-7.3-7.3-12.5-38.8-12.5-38.8s31.5 5.3 38.8 12.5c7.3 7.3 7.3 19 0 26.3-7.2 7.2-19 7.2-26.3 0z"/><g><path d="M66.3 12.4c-30.8 0-55.8 25-55.8 55.8 0 30.8 25 55.8 55.8 55.8 30.8 0 55.8-25 55.8-55.8.1-30.8-24.9-55.8-55.8-55.8z" fill="none"/><path class="st1" d="M128.2 21.3C99.9-7.1 53.9-7.1 25.6 21.3-14.3 61.2 4.4 145.1 4.4 145.1s83.9 18.7 123.8-21.2c28.4-28.3 28.4-74.3 0-102.6zm-90.8 90.8c-21.8-21.8-21.8-57.2 0-79 21.8-21.8 57.2-21.8 79 0 21.8 21.8 21.8 57.2 0 79-21.8 21.8-57.2 21.8-79 0z"/></g><g><path class="st0" d="M258.6 95.2l29-25.6h2.7l-24.6 21.6"/><path class="st0" d="M275.6 80.2l29-25.6h2.7l-24.6 21.6 28.8 62.4h-10.1l-25.8-55.9M265.6 82.7v55.9h-9V10.7h9v69.5M178.6 95.2l29-25.6h2.7l-24.6 21.6"/><path class="st0" d="M195.6 80.2l29-25.6h2.7l-24.6 21.6 28.8 62.4h-10.1l-25.8-55.9M185.6 82.7v55.9h-9V10.7h9v69.5"/><g><path class="st0" d="M316.4 76.7h9v61.8h-9zM327 60.5c0 3.4-2.8 6.2-6.2 6.2-3.4 0-6.2-2.8-6.2-6.2 0-3.4 2.8-6.2 6.2-6.2 3.5.1 6.2 2.8 6.2 6.2z"/></g><g><path class="st0" d="M238.4 76.7h9v61.8h-9zM249 60.5c0 3.4-2.8 6.2-6.2 6.2-3.4 0-6.2-2.8-6.2-6.2 0-3.4 2.8-6.2 6.2-6.2 3.5.1 6.2 2.8 6.2 6.2z"/></g></g><g><path class="st1" d="M360.7 139.8c-.8 0-1.5-.5-1.8-1.3L332 57c-.2-.6-.1-1.2.3-1.7.3-.5.9-.8 1.5-.8h11c.8 0 1.5.5 1.8 1.3l18.7 56 18.4-56c.3-.8 1-1.3 1.8-1.3h2.2c.6 0 1.2.3 1.5.8.3.5.4 1.1.3 1.7l-26.9 81.5c-.4.8-1.1 1.3-1.9 1.3zM427.9 140.1c-12 0-22.4-4.3-30.9-12.9-8.6-8.6-12.9-19-12.9-30.9 0-12.1 4.3-22.6 12.9-31.1 8.6-8.5 19-12.8 30.9-12.8 8.3 0 16 2.1 22.9 6.4 6.9 4.2 12.2 9.9 15.9 17 .2.5.3 1 .1 1.5-.2.5-.6.9-1 1.1l-68.3 27.9c1.8 8 5.4 14.7 10.8 20 5.8 5.7 12.2 8.4 19.6 8.4 6.3 0 12.1-2.1 17.2-6.2 5.1-4.2 9.1-9.7 11.7-16.6.3-.7 1-1.2 1.7-1.2.2 0 .4 0 .6.1l6.9 2.6c.5.2.9.6 1.1 1.1.2.5.2 1-.1 1.5-3.7 7.2-9 13.1-16 17.5-6.9 4.3-14.7 6.6-23.1 6.6zm0-82.3c-8.7 0-15.9 3.6-22.1 11.1-6.2 7.5-9.4 16.6-9.4 27.3 0 1.1.1 2.5.2 4.4L455 76.4c-2.6-5.4-6.2-9.8-10.7-13.1-4.9-3.7-10.5-5.5-16.4-5.5zM497 60.5c0 3.4-2.8 6.2-6.2 6.2-3.4 0-6.2-2.8-6.2-6.2 0-3.4 2.8-6.2 6.2-6.2 3.5.1 6.2 2.8 6.2 6.2zM472 129.9c.1-.4.2-.7.3-1.1V56.9c0-1 .8-1.9 1.9-1.9h8.4c1 0 1.9.8 1.9 1.9v78.5c0 1-.8 1.9-1.9 1.9h-8.4c-.3 0-.6-.1-.9-.2"/><path class="st1" d="M484.4 62.5c-.1.4-.2.7-.3 1.1v71.8c0 1-.8 1.9-1.9 1.9h-8.4c-1 0-1.9-.8-1.9-1.9V56.9c0-1 .8-1.9 1.9-1.9h8.4c.3 0 .6.1.9.2M545.3 140.1c-12 0-22.4-4.3-30.8-12.8-8.5-8.5-12.8-18.9-12.8-30.8V16.1c0-1 .8-1.9 1.9-1.9h8.6c1 0 1.9.8 1.9 1.9v49.7c7.9-8.7 18.4-13.1 31.3-13.1 12.1 0 22.5 4.3 30.9 12.7 8.4 8.4 12.7 18.9 12.7 31 0 12-4.3 22.3-12.8 30.8-8.6 8.5-18.9 12.9-30.9 12.9zm0-81.9c-8.7 0-15.9 3.6-22 11-6.2 7.4-9.3 16.6-9.3 27.2 0 10.5 3.1 19.6 9.3 27.1 6.2 7.5 13.4 11.1 22 11.1 8.7 0 15.9-3.6 22.1-11.1 6.2-7.5 9.4-16.6 9.4-27.1 0-10.6-3.1-19.8-9.3-27.2-6.2-7.4-13.4-11-22.2-11z"/></g></svg>